<svg width="125" height="276" viewBox="0 0 125 276" fill="none" xmlns="http://www.w3.org/2000/svg">
<g clip-path="url(#clip0_116_198)">
<path d="M125 276H76.5609L76.0887 273.958L73.4992 262.724L70.9138 273.958L70.4455 276H20.6177C20.5096 275.311 20.4055 274.631 20.3015 273.958C18.8487 264.681 17.4119 256.958 16.1952 254.748C12.6652 248.35 15.9551 252.358 19.7212 248.586C23.4873 244.819 19.7212 248.586 17.5159 243.75C15.3067 238.913 27.2694 202.159 27.2694 202.159L108.875 203.364C108.875 203.364 123.947 229.745 124.104 233.384C124.192 235.454 124.612 256.334 124.956 273.958C124.972 274.643 124.984 275.327 125 276Z" fill="#2F2E41"/>
<path d="M77.4053 227.719C77.4053 227.719 112.138 243.704 117.61 231.443C123.082 219.181 120.374 202.792 116.984 200.647C113.594 198.501 109.871 188.618 114.83 181.788C119.79 174.957 111.989 163.418 109.805 162.24C108.141 161.343 103.616 110.783 101.552 86.7117C101.233 82.9906 99.845 79.4413 97.5559 76.491C95.2667 73.5407 92.1738 71.3154 88.6496 70.0829L80.4389 56.8171L59.3755 56.6275L48.8528 71.2219L33.6664 76.9043L22.267 124C22.267 124 22.157 144.802 24.5527 167.013C25.2982 173.924 26.2862 180.971 27.5956 187.57C30.6797 203.114 17.2457 215.914 24.9253 218.856C46.3445 227.063 77.4053 227.719 77.4053 227.719Z" fill="#E6E6E6"/>
<path d="M33.807 197.439L100.626 195.037C101.08 195.037 101.529 195.127 101.949 195.3C102.368 195.474 102.749 195.729 103.07 196.05C103.391 196.371 103.646 196.752 103.819 197.172C103.993 197.591 104.082 198.041 104.082 198.495V232.012C104.082 232.466 103.993 232.916 103.819 233.336C103.646 233.755 103.391 234.136 103.07 234.457C102.749 234.779 102.368 235.033 101.949 235.207C101.529 235.381 101.08 235.47 100.626 235.47H37.8092C37.3553 235.47 36.9058 235.381 36.4864 235.207C36.067 235.033 35.686 234.779 35.365 234.457C35.044 234.136 34.7894 233.755 34.6157 233.336C34.442 232.916 34.3525 232.466 34.3525 232.012C30.6485 222.569 27.5501 213.377 30.3503 200.897C30.3503 199.98 30.7145 199.101 31.3627 198.452C32.011 197.804 32.8902 197.439 33.807 197.439Z" fill="#3F3D56"/>
<path d="M96.2537 201.558H41.2708V202.359H96.2537V201.558Z" fill="#2F2E41"/>
<path d="M96.2538 213.121H41.2711V214.836H96.2538V213.121Z" fill="#2F2E41"/>
<path d="M91.7022 176.976H41.2709V201.594H91.7022V176.976Z" fill="#FB2576"/>
<path opacity="0.2" d="M91.7022 176.976H41.2709V201.594H91.7022V176.976Z" fill="black"/>
<path d="M91.7022 176.976H56.9168V201.594H91.7022V176.976Z" fill="#FB2576"/>
<path d="M86.2661 181.087H79.397C79.334 181.087 79.2736 181.062 79.229 181.018C79.1844 180.973 79.1594 180.913 79.1594 180.85C79.1594 180.787 79.1844 180.726 79.229 180.682C79.2736 180.637 79.334 180.612 79.397 180.612H86.2661C86.3291 180.612 86.3896 180.637 86.4342 180.682C86.4787 180.726 86.5038 180.787 86.5038 180.85C86.5038 180.913 86.4787 180.973 86.4342 181.018C86.3896 181.062 86.3291 181.087 86.2661 181.087Z" fill="white"/>
<path d="M52.3921 198.259H45.523C45.4601 198.259 45.3999 198.233 45.3556 198.189C45.3112 198.144 45.2863 198.084 45.2863 198.021C45.2863 197.958 45.3112 197.898 45.3556 197.853C45.3999 197.809 45.4601 197.784 45.523 197.783H52.3921C52.4551 197.783 52.5156 197.808 52.5601 197.853C52.6047 197.897 52.6297 197.958 52.6297 198.021C52.6297 198.084 52.6047 198.145 52.5601 198.189C52.5156 198.234 52.4551 198.259 52.3921 198.259Z" fill="white"/>
<path d="M65.6075 181.087H44.4731C44.4152 181.089 44.3587 181.07 44.3134 181.033C44.2681 180.997 44.2369 180.947 44.2253 180.89C44.2188 180.856 44.22 180.821 44.229 180.788C44.2379 180.755 44.2544 180.725 44.277 180.699C44.2997 180.673 44.3279 180.653 44.3596 180.64C44.3912 180.627 44.4255 180.621 44.4597 180.623H65.7204C65.768 180.65 65.8057 180.691 65.8276 180.741C65.8494 180.79 65.8544 180.846 65.8415 180.899C65.8287 180.951 65.7988 180.999 65.7565 181.033C65.7142 181.067 65.6618 181.086 65.6075 181.087Z" fill="white"/>
<path d="M99.4829 235.106L56.7943 244.577C55.4295 244.577 54.1207 244.034 53.1557 243.069C52.1906 242.104 51.6485 240.794 51.6485 239.429C47.456 228.7 47.385 218.642 51.6485 209.291C51.6485 207.926 52.1906 206.617 53.1557 205.651C54.1207 204.686 55.4295 204.144 56.7943 204.144L99.4829 194.673C100.848 194.673 102.156 195.215 103.122 196.181C104.087 197.146 104.629 198.455 104.629 199.821C108.574 211.076 111.836 222.123 104.629 229.958C104.629 231.324 104.087 232.633 103.122 233.598C102.156 234.564 100.848 235.106 99.4829 235.106Z" fill="#2F2E41"/>
<path d="M60.9337 210.54L61.48 213.915L89.3356 213.189C89.429 211.422 76.7766 210.099 63.3601 210.473L60.9337 210.54Z" fill="#3F3D56"/>
<path d="M60.9337 218.948L61.48 222.323L89.3356 221.597C89.429 219.829 76.7766 218.506 63.3601 218.881L60.9337 218.948Z" fill="#3F3D56"/>
<path d="M60.9337 228.958L61.48 232.333L89.3356 231.606C89.429 229.839 76.7766 228.516 63.3601 228.89L60.9337 228.958Z" fill="#3F3D56"/>
<path d="M109.915 159.967L109.13 167.502L108.946 169.244L108.664 172.042L102.605 230.194C103.106 231.872 103.037 233.668 102.409 235.302C101.78 236.937 100.629 238.316 99.1332 239.226C97.4054 240.257 95.3394 240.559 93.389 240.066C91.4386 239.574 89.7633 238.327 88.7313 236.6C88.6945 236.539 88.6699 236.477 88.6332 236.416C87.6031 234.619 87.3138 232.491 87.8269 230.484C88.3399 228.476 89.6148 226.748 91.3808 225.666C91.7464 225.457 92.1278 225.276 92.5216 225.127L92.4725 223.494L92.3253 218.377L92.2149 214.512L91.9818 206.818L91.8959 203.836L91.6138 194.167L91.344 184.841L91.0128 173.539L90.7551 164.851L93.8831 164.054L109.915 159.967Z" fill="#A0616A"/>
<path d="M115.975 150.139C115.693 151.577 115.435 152.507 115.251 152.806C113.669 155.284 112.7 151.821 113.571 158.46C114.27 163.848 110.075 163.173 111.584 164.324C114.074 166.227 110.639 167.068 109.13 168.097C108.456 168.55 110.324 168.443 111.096 169.073C111.464 169.361 109.718 170.194 110.148 170.376C111.792 171.15 110.848 171.737 108.664 172.191C105.046 172.932 98.0414 173.297 93.8095 173.441C92.6074 173.496 91.6261 173.518 91.0128 173.54C90.559 173.551 90.3013 173.551 90.3013 173.551C90.3013 173.551 89.2342 172.865 88.7926 170.774C88.4737 169.314 88.4737 167.156 89.3568 164.058C89.8965 162.155 90.8165 160.794 91.3562 159.699C91.6691 159.188 91.8149 158.592 91.7733 157.995V157.984C91.6874 157.42 91.2826 156.899 90.3626 156.346C88.7067 155.351 89.6267 153.259 90.9146 151.29C92.1413 149.442 93.6868 147.683 93.6868 147.041C93.6868 145.68 83.4812 116.758 83.4812 116.758L87.2347 73.0863C90.0974 71.1202 93.5726 70.2521 97.0232 70.6411C99.3907 70.9509 102.028 71.9467 104.739 74.1817C107.106 76.1401 109.535 79.0611 111.866 83.2877C121.777 101.245 118.085 139.539 115.975 150.139Z" fill="#E6E6E6"/>
<path d="M66.4814 51.6765C78.5805 51.6765 88.3887 41.8645 88.3887 29.7608C88.3887 17.6572 78.5805 7.84517 66.4814 7.84517C54.3822 7.84517 44.574 17.6572 44.574 29.7608C44.574 41.8645 54.3822 51.6765 66.4814 51.6765Z" fill="#A0616A"/>
<path d="M89.28 40.9109C89.28 40.9109 83.2011 45.8768 79.8679 47.3256C80.7908 44.1194 81.7523 38.6147 82.6726 35.4176C83.1512 33.7353 83.6399 32.0164 83.5621 30.2777C83.4776 28.5273 82.7285 26.7199 81.2451 25.8129C80.5253 25.3709 79.6847 25.1667 78.8424 25.2292C78.0001 25.2917 77.1989 25.6177 76.5521 26.1611C75.9053 26.7045 75.4459 27.4376 75.2388 28.2568C75.0317 29.0759 75.0875 29.9394 75.3982 30.725C73.9462 30.6261 73.1262 28.9666 72.9484 27.5158C72.7706 26.065 72.9052 24.4842 72.1037 23.2542C71.3311 22.0619 69.8057 21.5182 68.3769 21.5836C66.9598 21.6424 65.614 22.2243 64.3444 22.8868C60.7137 24.7657 57.4166 27.3593 53.5102 28.599C52.7268 28.8482 51.9217 29.0235 51.1055 29.1226C51.1341 26.7595 50.3511 24.4582 48.8874 22.6032C48.6754 24.8047 48.055 26.9475 47.058 28.9216C45.1745 28.5554 43.501 27.4855 42.3777 25.9292C41.155 24.1575 40.8543 21.8731 41.142 19.743C41.2815 18.7645 41.5197 17.8027 41.853 16.8723C42.4276 16.7342 42.9873 16.5399 43.5239 16.2922C44.708 15.7732 45.7779 15.0252 46.6721 14.0912C45.4637 14.1419 44.2533 14.056 43.0641 13.8351C43.0937 13.7645 43.1207 13.7029 43.1503 13.6322C43.8311 12.1445 44.5847 10.608 45.8993 9.6424C47.2139 8.6768 49.2501 8.48469 50.392 9.66156C53.3601 4.99516 58.0597 1.69943 63.4569 0.499388C68.8541 -0.700654 74.5068 0.293293 79.1714 3.26257C79.2754 3.32877 79.3788 3.39589 79.4817 3.46394C78.6307 4.43558 77.9779 5.56424 77.5597 6.78644C78.854 6.12076 80.2287 5.62513 81.6499 5.31185C82.6504 6.42956 83.2829 7.77038 83.0117 9.20448C84.6706 10.0124 87.9058 11.3585 86.3766 12.2446C90.3468 15.8 92.8456 20.7113 93.3828 26.0148C93.9199 31.3182 92.4566 36.6311 89.28 40.9109Z" fill="#2F2E41"/>
<path d="M62.1202 191.447C61.9906 193.455 61.0694 195.33 59.5588 196.66C58.0483 197.989 56.072 198.664 54.0642 198.537C53.9962 198.524 53.9275 198.516 53.8585 198.511C51.7937 198.342 49.8763 197.374 48.5131 195.813C47.1498 194.252 46.448 192.222 46.5566 190.152C46.5945 189.733 46.6632 189.318 46.7623 188.909L45.391 188.026L41.0888 185.24L37.8492 183.148L31.3787 178.972L28.8762 177.361L28.5419 177.146L20.7516 172.105L14.4953 168.067L13.9639 167.724L12.9183 167.047L3.42245 160.917L0.868531 159.27C0.859946 159.262 0.868531 159.262 0.868531 159.262C0.782851 159.099 6.15636 156.433 6.07068 156.27C4.71657 153.586 3.00251 151.331 5.21366 141.695L2.95969 137.64L8.7189 142.561L10.0473 143.701L12.1898 145.519L38.6891 168.135L56.6524 183.465C58.3169 184.005 59.7561 185.08 60.7452 186.524C61.7344 187.968 62.2179 189.699 62.1202 191.447Z" fill="#A0616A"/>
<path d="M57.2694 108.361L27.5563 154.066L39.4947 167.415L38.6891 168.135L28.5419 177.146L25.6709 179.693L20.3573 178.612C20.3573 178.612 19.3032 177.009 13.7582 176.186C8.21326 175.363 11.4443 173.477 13.8953 169.79C14.4781 168.907 12.2156 170.296 12.0699 169.987C12.0013 169.799 10.6301 169.173 10.3558 169.13C9.22453 168.916 10.3301 168.273 8.70177 167.938C6.08784 167.407 5.93359 169.259 0.868532 159.271C0.859947 159.262 0.868532 159.262 0.868532 159.262C0.782852 159.099 0.705696 158.945 0.620016 158.782C-0.734096 156.098 0.242926 148.639 2.45406 139.003C5.83069 124.308 12.0699 104.554 17.2634 89.0278C18.2742 86.0123 19.9152 83.2466 22.0773 80.9148C24.2394 78.583 26.8731 76.7384 29.8031 75.5039C32.7331 74.2694 35.8924 73.6731 39.0706 73.7548C42.2489 73.8365 45.3733 74.5943 48.2361 75.9778C51.0989 77.3613 53.6344 79.3387 55.6739 81.7785C57.7135 84.2184 59.2103 87.0647 60.0649 90.1282C60.9194 93.1917 61.1121 96.4021 60.6301 99.5458C60.1481 102.69 59.0025 105.695 57.2694 108.361Z" fill="#E6E6E6"/>
<path d="M69.0806 225.68C69.2036 225.701 69.3302 225.684 69.4432 225.631C69.5562 225.578 69.6502 225.491 69.7123 225.383C69.7745 225.275 69.8018 225.15 69.7907 225.026C69.7796 224.901 69.7305 224.783 69.6501 224.688L69.6294 224.518L69.6508 224.48C69.8125 224.201 70.053 223.977 70.342 223.834C70.6311 223.691 70.9558 223.637 71.2754 223.679C71.595 223.72 71.8952 223.855 72.1384 224.067C72.3816 224.278 72.5568 224.557 72.6422 224.868C72.9834 226.109 73.4581 227.368 73.4548 228.635C73.4531 229.194 73.3544 229.75 73.163 230.275C74.6279 227.911 75.5676 225.26 75.9184 222.5C76.0056 221.808 76.0541 221.111 76.0637 220.413C76.071 219.841 76.0531 219.27 76.0101 218.699C75.7732 215.604 74.8058 212.609 73.1872 209.96C72.3212 209.336 71.6673 208.461 71.3138 207.453C71.1853 207.091 71.11 206.712 71.0902 206.328C71.1933 206.355 71.6848 204.793 71.618 204.685C71.7921 204.482 72.0675 204.404 72.2544 204.208C73.1837 203.231 74.254 203.557 74.6411 205.092C75.7836 205.861 75.667 206.884 74.795 207.772C74.2402 208.337 74.0685 209.175 73.5665 209.791C73.6026 209.852 73.6406 209.911 73.6767 209.971C74.3354 211.081 74.8839 212.253 75.3142 213.469C75.3358 212.17 75.6654 210.894 76.2761 209.746C76.8827 208.682 77.8739 207.845 78.7641 206.971C79.0001 206.736 79.3005 206.576 79.6273 206.511C79.9542 206.447 80.2928 206.48 80.6004 206.608C80.9081 206.736 81.1709 206.953 81.3556 207.23C81.5403 207.507 81.6387 207.833 81.6384 208.167L81.6376 208.21C81.5154 208.26 81.3951 208.314 81.2767 208.373C81.1279 208.447 81.005 208.565 80.9242 208.711C80.8434 208.856 80.8084 209.023 80.8239 209.189C80.8393 209.354 80.9045 209.512 81.0108 209.64C81.1171 209.768 81.2596 209.861 81.4196 209.906L81.436 209.911C81.3436 210.317 81.2205 210.716 81.0678 211.104C81.574 215.04 79.2719 216.161 76.2261 215.842C76.1547 215.867 76.085 215.894 76.0139 215.918C76.3852 217.626 76.5329 219.375 76.4534 221.121C76.4031 222.151 76.2698 223.174 76.0545 224.183L76.0642 224.147C76.4268 223.042 77.1596 222.095 78.139 221.467C79.5916 220.551 81.5018 220.387 83.0316 219.696C83.1947 219.618 83.3768 219.588 83.5562 219.61C83.7356 219.632 83.905 219.705 84.0443 219.82C84.1837 219.936 84.2872 220.088 84.3426 220.261C84.398 220.433 84.403 220.617 84.3571 220.792L84.3465 220.829C84.124 220.889 83.9053 220.962 83.6919 221.049C83.5696 221.099 83.4494 221.154 83.331 221.212C83.1822 221.287 83.0593 221.404 82.9785 221.55C82.8977 221.695 82.8627 221.862 82.8782 222.028C82.8936 222.194 82.9588 222.351 83.0651 222.479C83.1714 222.607 83.3139 222.7 83.4739 222.746L83.4903 222.75L83.524 222.76C83.0536 223.578 82.4459 224.31 81.7274 224.922C80.6929 228.173 78.0065 228.156 75.2973 226.831L75.2955 226.83C74.8152 228.142 74.1999 229.399 73.4596 230.583L68.6623 229.98C68.6518 229.925 68.6432 229.868 68.6345 229.812C69.075 229.896 69.5241 229.926 69.9719 229.9C69.6708 229.418 69.3703 228.933 69.0692 228.452C69.0623 228.442 69.0559 228.433 69.0501 228.423C68.8977 228.177 68.7433 227.932 68.5908 227.686C68.6674 226.999 68.832 226.325 69.0806 225.68Z" fill="#F2F2F2"/>
</g>
<defs>
<clipPath id="clip0_116_198">
<rect width="125" height="276" fill="white"/>
</clipPath>
</defs>
</svg>
