<svg width="257" height="356" viewBox="0 0 257 356" fill="none" xmlns="http://www.w3.org/2000/svg">
<path d="M62.8322 190.629C63.2604 182.821 67.2156 126.957 67.7457 115.356L41.3432 135.011C41.3432 135.011 23.5241 168.365 22.994 168.365C22.9199 168.38 22.8437 168.38 22.7697 168.365C21.2814 168.08 13.8601 165.939 12.331 165.511H12.066L26.4395 123.206C33.9627 109.75 62.5672 87.5268 69.7438 83.7754C76.0029 80.5133 87.1552 80.8395 87.5425 80.8599C88.1949 79.1881 88.3988 77.0677 90.0299 76.0687H90.1522C92.191 75.1309 104.179 74.0299 110.907 75.8444C111.225 75.9335 111.528 76.0711 111.804 76.2522C113.361 77.3965 114.472 79.0473 114.944 80.9211C114.944 80.9211 130.786 81.655 136.453 85.2025C146.648 91.6452 168.116 131.524 170.42 133.808C175.782 139.149 195.905 150.75 203.632 154.807C205.182 156.316 204.55 163.758 202.368 165.246V165.368C187.584 160.256 173.105 154.3 159.003 147.529C155.21 145.205 134.822 121.351 134.822 121.351C138.35 144.736 142.978 178.6 143.222 190.466H141.184L64.0555 190.609L62.8322 190.629Z" fill="black"/>
<path d="M83.8523 350.94V351.409L59.1012 351.185L38.9986 341.725L45.4412 328.493L45.7062 328.595L59.5905 334.1L59.9575 334.283C67.3176 338.035 67.6846 343.07 71.4767 342.887C77.9397 342.581 83.2203 347.474 83.8523 350.94Z" fill="black"/>
<path d="M163.488 347.577L159.41 332.673L159.614 333.162C159.614 333.162 175.17 329.309 175.232 328.84H175.741C178.473 328.33 190.89 330.614 199.758 329.309C204.04 328.677 208.566 329.941 209.035 335.425L163.488 347.882V347.577Z" fill="black"/>
<path d="M256.417 15.7813V354.896H226.446V15.8017L256.417 15.7813Z" fill="black"/>
<path d="M114.883 39.6149C114.891 39.7275 114.877 39.8405 114.842 39.9476C114.806 40.0547 114.75 40.1537 114.676 40.2389C114.602 40.3242 114.512 40.394 114.411 40.4444C114.31 40.4947 114.2 40.5247 114.088 40.5324C113.861 40.5486 113.636 40.474 113.464 40.3249C113.292 40.1757 113.187 39.9644 113.17 39.7373C113.154 39.5102 113.229 39.2859 113.378 39.1139C113.527 38.9418 113.738 38.836 113.965 38.8198C114.191 38.8083 114.413 38.8847 114.584 39.0329C114.755 39.1811 114.862 39.3896 114.883 39.6149Z" fill="black"/>
<path d="M103.649 39.9002C103.66 40.0117 103.649 40.1243 103.616 40.2313C103.583 40.3382 103.528 40.4375 103.456 40.5231C103.384 40.6086 103.295 40.6788 103.195 40.7294C103.095 40.7801 102.986 40.8101 102.874 40.8177C102.762 40.826 102.649 40.812 102.542 40.7765C102.435 40.741 102.336 40.6847 102.25 40.6108C102.165 40.5369 102.095 40.4469 102.045 40.346C101.995 40.245 101.965 40.1351 101.957 40.0226C101.949 39.9111 101.963 39.7991 101.998 39.6932C102.034 39.5873 102.091 39.4897 102.165 39.4061C102.239 39.3224 102.329 39.2545 102.43 39.2063C102.531 39.1581 102.64 39.1306 102.752 39.1255C102.862 39.1143 102.974 39.1257 103.08 39.1591C103.186 39.1925 103.283 39.2471 103.367 39.3196C103.451 39.3922 103.52 39.4811 103.568 39.5809C103.617 39.6807 103.644 39.7894 103.649 39.9002Z" fill="black"/>
<path d="M256.417 15.7813V354.896H226.446H98.7967V261.111" stroke="black" stroke-width="0.86" stroke-linecap="round" stroke-linejoin="round"/>
<path d="M98.7967 14.8027V14.6804V1H256.417V15.7813L226.446 15.8017H226.344" stroke="black" stroke-width="0.86" stroke-linecap="round" stroke-linejoin="round"/>
<path d="M133.395 8.52308C133.395 9.17632 133.202 9.8149 132.839 10.3581C132.476 10.9012 131.96 11.3245 131.356 11.5745C130.753 11.8245 130.089 11.8899 129.448 11.7625C128.807 11.635 128.219 11.3205 127.757 10.8586C127.295 10.3966 126.98 9.80813 126.853 9.16743C126.726 8.52674 126.791 7.86265 127.041 7.25913C127.291 6.65561 127.714 6.13977 128.257 5.77685C128.801 5.41392 129.439 5.22021 130.092 5.22021C130.967 5.22556 131.804 5.57526 132.422 6.19351C133.04 6.81176 133.39 7.64876 133.395 8.52308Z" stroke="black" stroke-width="0.86" stroke-linecap="round" stroke-linejoin="round"/>
<path d="M121.754 8.52314C121.754 9.17897 121.558 9.81991 121.193 10.3643C120.827 10.9087 120.307 11.3319 119.7 11.58C119.093 11.8281 118.426 11.8898 117.784 11.7574C117.141 11.6249 116.553 11.3042 116.094 10.8361C115.634 10.3681 115.325 9.77386 115.204 9.12919C115.084 8.48452 115.158 7.81858 115.417 7.21624C115.677 6.61389 116.109 6.10239 116.661 5.74693C117.212 5.39147 117.856 5.20813 118.512 5.22028C119.377 5.23631 120.202 5.59135 120.808 6.20903C121.414 6.8267 121.754 7.65766 121.754 8.52314V8.52314Z" stroke="black" stroke-width="0.86" stroke-linecap="round" stroke-linejoin="round"/>
<path d="M110.132 8.52308C110.132 9.17632 109.939 9.8149 109.576 10.3581C109.213 10.9012 108.697 11.3245 108.094 11.5745C107.49 11.8245 106.826 11.8899 106.185 11.7625C105.545 11.635 104.956 11.3205 104.494 10.8586C104.032 10.3966 103.718 9.80813 103.59 9.16743C103.463 8.52674 103.528 7.86265 103.778 7.25913C104.028 6.65561 104.451 6.13977 104.995 5.77685C105.538 5.41392 106.176 5.22021 106.83 5.22021C107.263 5.22021 107.693 5.30565 108.094 5.47163C108.494 5.63761 108.858 5.8809 109.165 6.1876C109.472 6.4943 109.715 6.85841 109.881 7.25913C110.047 7.65985 110.132 8.08934 110.132 8.52308V8.52308Z" stroke="black" stroke-width="0.86" stroke-linecap="round" stroke-linejoin="round"/>
<path d="M209.381 335.639L163.683 347.926L164.694 351.687L210.392 339.399L209.381 335.639Z" stroke="black" stroke-width="0.86" stroke-linecap="round" stroke-linejoin="round"/>
<path d="M59.8759 334.263C63.5254 331.286 83.4853 297.565 98.7559 261.111C101.773 253.914 104.607 246.594 107.115 239.397C110.559 229.779 113.284 219.918 115.27 209.896" stroke="black" stroke-width="0.86" stroke-linecap="round" stroke-linejoin="round"/>
<path d="M63.9535 190.731C63.5458 198.56 62.7507 207.633 61.7313 217.236C56.6342 265.311 45.6859 328.33 45.6859 328.33" stroke="black" stroke-width="0.86" stroke-linecap="round" stroke-linejoin="round"/>
<path d="M107.36 239.418C118.308 254.852 155.598 323.355 159.492 332.591L159.696 333.081C159.696 333.081 175.252 329.227 175.313 328.758C176.271 321.969 161.857 261.62 141.061 190.568" stroke="black" stroke-width="0.86" stroke-linecap="round" stroke-linejoin="round"/>
<path d="M75.1873 204.758C73.7806 212.261 68.2758 216.175 61.7312 217.378C58.5677 217.929 55.3328 217.929 52.1692 217.378" stroke="black" stroke-width="0.86" stroke-linecap="round" stroke-linejoin="round"/>
<path d="M175.843 328.819C178.575 328.31 190.991 330.593 199.86 329.288C204.142 328.656 208.668 329.92 209.137 335.405L163.59 347.862" stroke="black" stroke-width="0.86" stroke-linecap="round" stroke-linejoin="round"/>
<path d="M159.472 332.673L163.488 347.576" stroke="black" stroke-width="0.86" stroke-linecap="round" stroke-linejoin="round"/>
<path d="M38.917 341.725L36.7355 345.904L58.0818 355.507L83.7707 355.303V351.409H83.7503L58.9992 351.185L38.917 341.725Z" stroke="black" stroke-width="0.86" stroke-linecap="round" stroke-linejoin="round"/>
<path d="M83.8523 350.94C83.3222 347.434 78.0417 342.581 71.4971 342.887C67.7049 343.07 67.4195 338.035 59.9779 334.283L59.6109 334.1L45.7266 328.595L45.4616 328.493L38.9986 341.725" stroke="black" stroke-width="0.86" stroke-linecap="round" stroke-linejoin="round"/>
<path d="M67.7457 115.357C67.2156 126.957 63.2604 182.821 62.8322 190.629H63.9535L141.082 190.487H143.12C142.896 178.621 138.248 144.756 134.72 121.371C133.823 115.458 133.008 110.239 132.355 106.182" stroke="black" stroke-width="0.86" stroke-linecap="round" stroke-linejoin="round"/>
<path d="M91.5998 32.3159C91.8444 30.6033 92.1094 28.5645 92.4968 26.5256C92.9509 23.1389 94.2633 19.9246 96.3094 17.1879C97.0613 16.3166 97.9495 15.5729 98.9395 14.986C102.813 12.7637 106.809 14.721 110.296 18.3296C111.515 19.5997 112.633 20.9631 113.639 22.4073C116.693 26.7722 119.045 31.5875 120.612 36.6789C122.426 43.7535 112.457 59.697 109.562 60.8387C109.221 60.9807 108.865 61.0833 108.501 61.1446C104.281 61.9193 98.9191 58.1679 97.1249 54.4573" stroke="black" stroke-width="0.86" stroke-linecap="round" stroke-linejoin="round"/>
<path d="M90.1522 76.456V75.9667C90.1522 64.0397 89.4998 53.1932 90.4988 41.307" stroke="black" stroke-width="0.86" stroke-linecap="round" stroke-linejoin="round"/>
<path d="M108.318 61.5728L108.44 62.0418C109.5 66.5475 109.786 72.2358 111.743 76.1503" stroke="black" stroke-width="0.84" stroke-linecap="round" stroke-linejoin="round"/>
<path d="M93.2716 34.4566C92.7778 33.7039 92.1884 33.0186 91.5182 32.4178C86.727 28.3402 83.5669 37.4332 85.5445 40.0225C86.1654 40.6674 86.9622 41.1156 87.8358 41.3113C88.7094 41.5071 89.6213 41.4418 90.458 41.1235C90.8387 41.0101 91.2074 40.8598 91.559 40.6749" stroke="black" stroke-width="0.86" stroke-linecap="round" stroke-linejoin="round"/>
<path d="M113.721 22.387C114.597 22.387 124.119 20.3482 127.442 17.5142C128.441 16.6579 128.889 15.6997 128.359 14.7007C127.075 12.1725 118.716 14.8434 110.398 18.289C102.487 21.5714 94.5764 25.5267 92.7619 26.4442L92.456 26.5869" stroke="black" stroke-width="0.86" stroke-linecap="round" stroke-linejoin="round"/>
<path d="M104.363 35.3333C103.524 35.0862 102.639 35.0386 101.779 35.1944C100.919 35.3502 100.107 35.7049 99.4084 36.2303" stroke="black" stroke-width="0.86" stroke-linecap="round" stroke-linejoin="round"/>
<path d="M90.6007 36.1082C89.7225 36.8909 88.5962 37.3386 87.4202 37.3722" stroke="black" stroke-width="0.86" stroke-linecap="round" stroke-linejoin="round"/>
<path d="M115.474 35.6596C114.129 35.0275 111.05 35.211 110.52 36.5363C109.643 38.677 110.948 43.142 111.498 45.6905C111.886 47.4439 112.497 50.8079 109.46 49.9108" stroke="black" stroke-width="0.86" stroke-linecap="round" stroke-linejoin="round"/>
<path d="M105.26 54.2535C105.623 54.646 106.069 54.9524 106.566 55.1504C107.062 55.3484 107.597 55.4328 108.13 55.3977C108.664 55.3625 109.183 55.2085 109.649 54.9471C110.115 54.6856 110.517 54.3233 110.826 53.8865" stroke="black" stroke-width="0.86" stroke-linecap="round" stroke-linejoin="round"/>
<path d="M87.5425 80.8598C87.1552 80.8598 76.0029 80.5132 69.7438 83.7753C62.5672 87.5267 33.9627 109.75 26.4395 123.206L11.964 165.368H12.2291C13.7582 165.796 21.1794 167.937 22.6678 168.223C22.7418 168.237 22.818 168.237 22.892 168.223C23.524 168.223 41.2413 134.868 41.2413 134.868L67.603 115.153L75.0243 109.607" stroke="black" stroke-width="0.86" stroke-linecap="round" stroke-linejoin="round"/>
<path d="M19.6503 177.255C19.3345 179.271 18.687 181.22 17.7338 183.024C14.7776 188.611 9.57861 190.935 7.68252 187.51" stroke="black" stroke-width="0.86" stroke-linecap="round" stroke-linejoin="round"/>
<path d="M15.797 177.153C15.4086 179.331 14.5146 181.389 13.1867 183.159C11.8589 184.929 10.1343 186.364 8.15146 187.347L7.68253 187.571C6.60197 188.06 4.6855 188.733 3.9923 187.306C3.79475 186.823 3.76367 186.289 3.90398 185.787C4.04429 185.284 4.34798 184.843 4.76704 184.533H4.90976" stroke="black" stroke-width="0.86" stroke-linecap="round" stroke-linejoin="round"/>
<path d="M11.6378 176.072C11.1485 178.784 7.37671 182.963 4.74665 184.472C4.25044 184.79 3.68287 184.979 3.09522 185.022C0.322441 185.022 0.465161 182.148 2.56513 180.721C9.74173 175.827 8.04951 167.468 12.2291 165.491" stroke="black" stroke-width="0.86" stroke-linecap="round" stroke-linejoin="round"/>
<path d="M17.8154 183.065C18.1859 183.301 18.6061 183.448 19.043 183.493C19.4798 183.539 19.9213 183.482 20.3325 183.328C20.7438 183.174 21.1136 182.926 21.4127 182.605C21.7118 182.283 21.9321 181.896 22.0561 181.475C22.8052 179.673 23.2396 177.756 23.3405 175.807C23.63 173.362 23.4078 170.883 22.6881 168.528" stroke="black" stroke-width="0.86" stroke-linecap="round" stroke-linejoin="round"/>
<path d="M222.715 165.144C223.027 166.272 222.948 167.472 222.491 168.549C221.988 169.745 221.068 170.719 219.902 171.289C218.736 171.858 217.403 171.986 216.15 171.648L215.498 171.424C214.658 171.075 213.921 170.518 213.357 169.804C212.792 169.091 212.42 168.246 212.274 167.348C212.128 166.45 212.213 165.53 212.522 164.675C212.831 163.82 213.354 163.057 214.04 162.46C214.726 161.863 215.553 161.451 216.443 161.264C217.333 161.076 218.256 161.118 219.125 161.387C219.993 161.656 220.779 162.142 221.408 162.8C222.036 163.457 222.486 164.264 222.715 165.144V165.144Z" stroke="black" stroke-width="0.86" stroke-linecap="round" stroke-linejoin="round"/>
<path d="M223.164 165.001C224.713 162.963 223.694 160.679 221.777 159.211C221.358 158.878 220.899 158.598 220.411 158.375C218.686 157.475 216.678 157.282 214.813 157.838C212.948 158.393 211.372 159.654 210.421 161.352" stroke="black" stroke-width="0.86" stroke-linecap="round" stroke-linejoin="round"/>
<path d="M222.226 159.109C222.776 156.153 219.412 155.032 218.148 154.767C217.928 154.706 217.703 154.665 217.476 154.644C214.03 154.074 210.951 154.644 208.974 158.192" stroke="black" stroke-width="0.86" stroke-linecap="round" stroke-linejoin="round"/>
<path d="M87.5425 80.8191C88.1949 79.1473 88.3988 77.0269 90.0299 76.0279H90.1522C92.191 75.09 104.179 73.9891 110.907 75.8036C111.225 75.8927 111.528 76.0303 111.804 76.2114C113.361 77.3557 114.472 79.0065 114.944 80.8802C114.944 80.8802 130.786 81.6142 136.453 85.1617C146.647 91.6044 168.116 131.483 170.42 133.767C175.782 139.109 195.905 150.709 203.632 154.767C204.582 155.353 205.594 155.832 206.65 156.194C207.995 153.115 214.805 149.955 217.578 154.277" stroke="black" stroke-width="0.86" stroke-linecap="round" stroke-linejoin="round"/>
<path d="M134.822 121.35C134.822 121.35 155.21 145.205 159.023 147.468C173.125 154.239 187.604 160.195 202.388 165.307C203.918 165.796 205.365 166.225 206.67 166.571C206.935 166.637 207.182 166.763 207.391 166.94C207.6 167.117 207.764 167.339 207.873 167.591C208.709 169.629 211.298 174.156 216.212 171.668" stroke="black" stroke-width="0.86" stroke-linecap="round" stroke-linejoin="round"/>
<path d="M127.523 17.6162L226.446 6.52509V15.8016V354.896V354.916" stroke="black" stroke-width="0.86" stroke-linecap="round" stroke-linejoin="round"/>
<path d="M202.327 165.185C204.509 163.696 205.141 156.255 203.591 154.746" stroke="black" stroke-width="0.86" stroke-linecap="round" stroke-linejoin="round"/>
</svg>
