<svg width="23" height="25" viewBox="0 0 23 25" fill="none" xmlns="http://www.w3.org/2000/svg">
<path d="M18.2531 7.90122C18.2531 6.0709 17.526 4.31555 16.2317 3.02132C14.9375 1.72709 13.1822 1 11.3518 1C9.52152 1 7.76616 1.72709 6.47193 3.02132C5.1777 4.31555 4.45061 6.0709 4.45061 7.90122C4.45061 15.9526 1 18.2531 1 18.2531H21.7037C21.7037 18.2531 18.2531 15.9526 18.2531 7.90122Z" stroke="white" stroke-width="2" stroke-linecap="round" stroke-linejoin="round"/>
<path d="M13.3417 22.8539C13.1395 23.2025 12.8492 23.4918 12.5 23.693C12.1508 23.8941 11.7549 24 11.3519 24C10.9488 24 10.5529 23.8941 10.2037 23.693C9.85447 23.4918 9.56422 23.2025 9.362 22.8539" stroke="white" stroke-width="2" stroke-linecap="round" stroke-linejoin="round"/>
</svg>
